<svg xmlns="http://www.w3.org/2000/svg" version="1.1" xmlns:xlink="http://www.w3.org/1999/xlink" xmlns:svgjs="http://svgjs.dev/svgjs" width="2000" height="1878" viewBox="0 0 2000 1878"><g transform="matrix(1,0,0,1,1.1076263803494157,0.7603238866396396)"><svg viewBox="0 0 263 247" data-background-color="#ffffff" preserveAspectRatio="xMidYMid meet" height="1878" width="2000" xmlns="http://www.w3.org/2000/svg" xmlns:xlink="http://www.w3.org/1999/xlink"><g id="tight-bounds" transform="matrix(1,0,0,1,-0.14565286901594732,-0.09999999999999432)"><svg viewBox="0 0 263.2913057380319 247.2" height="247.2" width="263.2913057380319"><g><svg viewBox="0 0 397.4975999999999 373.2041452890494" height="247.2" width="263.2913057380319"><g><rect width="397.4975999999999" height="8.323426641892455" x="0" y="186.0876597454219" fill="#46a2a0" opacity="1" stroke-width="0" stroke="transparent" fill-opacity="1" class="rect-qz-0" data-fill-palette-color="primary" rx="1%" id="qz-0" data-palette-color="#46a2a0"></rect></g><g transform="matrix(1,0,0,1,0.9887999999999693,216.2001613660904)"><svg viewBox="0 0 395.52 157.00398392295898" height="157.00398392295898" width="395.52"><g id="textblocktransform"><svg viewBox="0 0 395.52 157.00398392295898" height="157.00398392295898" width="395.52" id="textblock"><g><svg viewBox="0 0 395.52 92.2968661735037" height="92.2968661735037" width="395.52"><g transform="matrix(1,0,0,1,0,0)"><svg width="395.52" viewBox="0 -34 148.69 34.7" height="92.2968661735037" data-palette-color="#46a2a0"><g class="wordmark-text-0" data-fill-palette-color="primary" id="text-0"><path d="M16.35 0L11.45 0 0-34 4.15-34 13.9-4.4 23.65-34 27.8-34 16.35 0ZM49.7 0L30.4 0 30.4-3.15 41.4-15.6Q43.65-18.15 44.52-19.85 45.4-21.55 45.4-23.4L45.4-23.4Q45.4-25.65 43.72-26.95 42.05-28.25 39.15-28.25L39.15-28.25Q38.1-28.25 36.82-27.98 35.55-27.7 34.4-27.28 33.25-26.85 32.65-26.35L32.65-26.35 31.05-29.45Q32.65-30.55 34.85-31.18 37.05-31.8 39.15-31.8L39.15-31.8Q43.85-31.8 46.62-29.53 49.4-27.25 49.4-23.4L49.4-23.4Q49.4-21.15 48.27-18.75 47.15-16.35 44.65-13.55L44.65-13.55 35.85-3.6 49.7-3.6 49.7 0ZM62.2 0L58.2 0 58.2-34 68.75-34Q71.6-34 73.9-32.65 76.2-31.3 77.55-29 78.9-26.7 78.9-23.85L78.9-23.85Q78.9-21.05 77.55-18.73 76.2-16.4 73.9-15.05 71.6-13.7 68.75-13.7L68.75-13.7 62.2-13.7 62.2 0ZM62.2-30.35L62.2-17.35 68.6-17.35Q70.35-17.35 71.77-18.23 73.2-19.1 74.07-20.6 74.95-22.1 74.95-23.85L74.95-23.85Q74.95-25.65 74.07-27.13 73.2-28.6 71.77-29.48 70.35-30.35 68.6-30.35L68.6-30.35 62.2-30.35ZM91.19 0.7L91.19 0.7Q86.64 0.7 84.02-2.73 81.39-6.15 81.39-12.05L81.39-12.05Q81.39-16.05 82.97-19.13 84.54-22.2 87.34-23.95 90.14-25.7 93.69-25.7L93.69-25.7Q95.99-25.7 98.47-24.9 100.94-24.1 102.84-22.8L102.84-22.8 102.84-5 103.34 0 100.04 0.25 99.14-4.25Q97.84-1.9 95.79-0.6 93.74 0.7 91.19 0.7ZM91.94-2.7L91.94-2.7Q95.14-2.7 97.09-5.83 99.04-8.95 99.04-14.1L99.04-14.1 99.04-21.05Q96.54-22.3 93.69-22.3L93.69-22.3Q91.24-22.3 89.32-21 87.39-19.7 86.29-17.38 85.19-15.05 85.19-12.05L85.19-12.05Q85.19-7.75 87.02-5.23 88.84-2.7 91.94-2.7ZM118.14 0.7L118.14 0.7Q115.69 0.7 113.39-0.2 111.09-1.1 109.34-2.65L109.34-2.65 111.39-5.4Q112.64-4.2 114.49-3.48 116.34-2.75 118.14-2.75L118.14-2.75Q120.49-2.75 121.92-3.85 123.34-4.95 123.34-6.75L123.34-6.75Q123.34-8.3 122.14-9.3 120.94-10.3 118.04-11.1L118.04-11.1Q115.19-11.95 113.52-12.9 111.84-13.85 111.14-15.18 110.44-16.5 110.44-18.35L110.44-18.35Q110.44-21.6 112.72-23.65 114.99-25.7 118.64-25.7L118.64-25.7Q119.79-25.7 121.17-25.48 122.54-25.25 123.82-24.88 125.09-24.5 125.89-24L125.89-24 124.49-20.95Q123.49-21.5 121.79-21.88 120.09-22.25 118.64-22.25L118.64-22.25Q116.74-22.25 115.49-21.25 114.24-20.25 114.24-18.7L114.24-18.7Q114.24-17.3 115.32-16.45 116.39-15.6 119.14-14.8L119.14-14.8Q123.59-13.5 125.37-11.75 127.14-10 127.14-6.9L127.14-6.9Q127.14-3.45 124.69-1.38 122.24 0.7 118.14 0.7ZM139.69 0.7L139.69 0.7Q137.24 0.7 134.94-0.2 132.64-1.1 130.89-2.65L130.89-2.65 132.94-5.4Q134.19-4.2 136.04-3.48 137.89-2.75 139.69-2.75L139.69-2.75Q142.04-2.75 143.46-3.85 144.89-4.95 144.89-6.75L144.89-6.75Q144.89-8.3 143.69-9.3 142.49-10.3 139.59-11.1L139.59-11.1Q136.74-11.95 135.06-12.9 133.39-13.85 132.69-15.18 131.99-16.5 131.99-18.35L131.99-18.35Q131.99-21.6 134.26-23.65 136.54-25.7 140.19-25.7L140.19-25.7Q141.34-25.7 142.71-25.48 144.09-25.25 145.36-24.88 146.64-24.5 147.44-24L147.44-24 146.04-20.95Q145.04-21.5 143.34-21.88 141.64-22.25 140.19-22.25L140.19-22.25Q138.29-22.25 137.04-21.25 135.79-20.25 135.79-18.7L135.79-18.7Q135.79-17.3 136.86-16.45 137.94-15.6 140.69-14.8L140.69-14.8Q145.14-13.5 146.91-11.75 148.69-10 148.69-6.9L148.69-6.9Q148.69-3.45 146.24-1.38 143.79 0.7 139.69 0.7Z" fill="#46a2a0" data-fill-palette-color="primary"></path></g></svg></g></svg></g><g transform="matrix(1,0,0,1,0,114.08594115227976)"><svg viewBox="0 0 395.52 42.91804277067922" height="42.91804277067922" width="395.52"><g transform="matrix(1,0,0,1,0,0)"><svg width="395.52" viewBox="-4.85 -34.4 458.94 49.8" height="42.91804277067922" data-palette-color="url(#6fcb6d91-f1f1-4ed6-833b-e047583953ef)"></svg></g></svg></g></svg></g></svg></g><g transform="matrix(1,0,0,1,76.53311999999997,0)"><svg viewBox="0 0 244.43135999999998 164.29858476664583" height="164.29858476664583" width="244.43135999999998"><g><svg xmlns="http://www.w3.org/2000/svg" xmlns:xlink="http://www.w3.org/1999/xlink" version="1.1" x="0" y="0" viewBox="-345.76500000000004 275.279 99.42178716439025 66.82799999999997" enable-background="new -346 256 100 100" xml:space="preserve" height="164.29858476664583" width="244.43135999999998" class="icon-icon-0" data-fill-palette-color="accent" id="icon-0"><g fill="#ffc0cb" data-fill-palette-color="accent"><path d="M-251.339 331.136c-1.075-0.089-10.585-1.174-13.146-12.066-1.193-5.07-0.778-11.961-0.771-12.072 0.029-0.447-0.054-5.186-0.681-7.358-2.921-10.141-18.188-15.871-36.045-12.331-3.322 0.658-6.707 1.383-9.986 2.229 0.362 3.394 0.476 9.926-3.161 14.244-3.077 3.656-9.528 4.764-10.254 4.879-0.113 0.016-0.226 0.025-0.337 0.025-1.037 0-1.95-0.755-2.117-1.811-0.186-1.17 0.614-2.271 1.784-2.454 1.539-0.249 5.903-1.341 7.642-3.406 2.163-2.569 2.434-6.594 2.297-9.446-0.092-1.936-0.047-16.29-0.047-16.29l-8.137 6.194c-1.875-0.712-3.939-1.112-6.114-1.112-2.109 0-4.118 0.373-5.947 1.046l-7.168-6.016v11.439c-1.411 2.03-2.238 4.402-2.238 6.952 0 5.992 4.494 11.062 10.695 12.788-0.211 2.04 0.017 4.297 0.793 6.817 1.057 3.43 3.927 6.252 7.952 8.349v15.042c0 2.928 2.374 5.302 5.303 5.302 2.927 0 5.302-2.374 5.302-5.302v-11.63c5.116 0.897 10.841 1.051 16.618 0.36l-8.898 7.167c-2.28 1.838-2.64 5.175-0.803 7.456 1.048 1.299 2.583 1.976 4.132 1.976 1.167 0 2.343-0.384 3.323-1.173l15.905-12.812c0.08-0.063 0.138-0.138 0.212-0.207v8.78c0 2.929 2.375 5.302 5.301 5.302 2.928 0 5.303-2.373 5.303-5.302V322.9c4.018 14.116 16.391 18.641 22.565 19.025 0.116 0.008 0.229 0.012 0.344 0.012 2.811 0 5.155-2.177 5.361-5.021C-246.146 333.958-248.382 331.379-251.339 331.136z" fill="#ffc0cb" data-fill-palette-color="accent"></path></g></svg></g></svg></g><g></g></svg></g><defs></defs><mask id="590ad783-fad3-49b6-914a-80d161554582"><g id="SvgjsG1390"><svg viewBox="0 0 263.2913057380319 247.2" height="247.2" width="263.2913057380319"><g><svg viewBox="0 0 397.4975999999999 373.2041452890494" height="247.2" width="263.2913057380319"><g><rect width="397.4975999999999" height="8.323426641892455" x="0" y="186.0876597454219" fill="black" opacity="1" stroke-width="0" stroke="transparent" fill-opacity="1" class="rect-qz-0" rx="1%" id="SvgjsRect1389" data-palette-color="#46a2a0"></rect></g><g transform="matrix(1,0,0,1,0.9887999999999693,216.2001613660904)"><svg viewBox="0 0 395.52 157.00398392295898" height="157.00398392295898" width="395.52"><g id="SvgjsG1388"><svg viewBox="0 0 395.52 157.00398392295898" height="157.00398392295898" width="395.52" id="SvgjsSvg1387"><g><svg viewBox="0 0 395.52 92.2968661735037" height="92.2968661735037" width="395.52"><g transform="matrix(1,0,0,1,0,0)"><svg width="395.52" viewBox="0 -34 148.69 34.7" height="92.2968661735037" data-palette-color="#46a2a0"><g class="wordmark-text-0" data-fill-palette-color="primary" id="SvgjsG1386"><path d="M16.35 0L11.45 0 0-34 4.15-34 13.9-4.4 23.65-34 27.8-34 16.35 0ZM49.7 0L30.4 0 30.4-3.15 41.4-15.6Q43.65-18.15 44.52-19.85 45.4-21.55 45.4-23.4L45.4-23.4Q45.4-25.65 43.72-26.95 42.05-28.25 39.15-28.25L39.15-28.25Q38.1-28.25 36.82-27.98 35.55-27.7 34.4-27.28 33.25-26.85 32.65-26.35L32.65-26.35 31.05-29.45Q32.65-30.55 34.85-31.18 37.05-31.8 39.15-31.8L39.15-31.8Q43.85-31.8 46.62-29.53 49.4-27.25 49.4-23.4L49.4-23.4Q49.4-21.15 48.27-18.75 47.15-16.35 44.65-13.55L44.65-13.55 35.85-3.6 49.7-3.6 49.7 0ZM62.2 0L58.2 0 58.2-34 68.75-34Q71.6-34 73.9-32.65 76.2-31.3 77.55-29 78.9-26.7 78.9-23.85L78.9-23.85Q78.9-21.05 77.55-18.73 76.2-16.4 73.9-15.05 71.6-13.7 68.75-13.7L68.75-13.7 62.2-13.7 62.2 0ZM62.2-30.35L62.2-17.35 68.6-17.35Q70.35-17.35 71.77-18.23 73.2-19.1 74.07-20.6 74.95-22.1 74.95-23.85L74.95-23.85Q74.95-25.65 74.07-27.13 73.2-28.6 71.77-29.48 70.35-30.35 68.6-30.35L68.6-30.35 62.2-30.35ZM91.19 0.7L91.19 0.7Q86.64 0.7 84.02-2.73 81.39-6.15 81.39-12.05L81.39-12.05Q81.39-16.05 82.97-19.13 84.54-22.2 87.34-23.95 90.14-25.7 93.69-25.7L93.69-25.7Q95.99-25.7 98.47-24.9 100.94-24.1 102.84-22.8L102.84-22.8 102.84-5 103.34 0 100.04 0.25 99.14-4.25Q97.84-1.9 95.79-0.6 93.74 0.7 91.19 0.7ZM91.94-2.7L91.94-2.7Q95.14-2.7 97.09-5.83 99.04-8.95 99.04-14.1L99.04-14.1 99.04-21.05Q96.54-22.3 93.69-22.3L93.69-22.3Q91.24-22.3 89.32-21 87.39-19.7 86.29-17.38 85.19-15.05 85.19-12.05L85.19-12.05Q85.19-7.75 87.02-5.23 88.84-2.7 91.94-2.7ZM118.14 0.7L118.14 0.7Q115.69 0.7 113.39-0.2 111.09-1.1 109.34-2.65L109.34-2.65 111.39-5.4Q112.64-4.2 114.49-3.48 116.34-2.75 118.14-2.75L118.14-2.75Q120.49-2.75 121.92-3.85 123.34-4.95 123.34-6.75L123.34-6.75Q123.34-8.3 122.14-9.3 120.94-10.3 118.04-11.1L118.04-11.1Q115.19-11.95 113.52-12.9 111.84-13.85 111.14-15.18 110.44-16.5 110.44-18.35L110.44-18.35Q110.44-21.6 112.72-23.65 114.99-25.7 118.64-25.7L118.64-25.7Q119.79-25.7 121.17-25.48 122.54-25.25 123.82-24.88 125.09-24.5 125.89-24L125.89-24 124.49-20.95Q123.49-21.5 121.79-21.88 120.09-22.25 118.64-22.25L118.64-22.25Q116.74-22.25 115.49-21.25 114.24-20.25 114.24-18.7L114.24-18.7Q114.24-17.3 115.32-16.45 116.39-15.6 119.14-14.8L119.14-14.8Q123.59-13.5 125.37-11.75 127.14-10 127.14-6.9L127.14-6.9Q127.14-3.45 124.69-1.38 122.24 0.7 118.14 0.7ZM139.69 0.7L139.69 0.7Q137.24 0.7 134.94-0.2 132.64-1.1 130.89-2.65L130.89-2.65 132.94-5.4Q134.19-4.2 136.04-3.48 137.89-2.75 139.69-2.75L139.69-2.75Q142.04-2.75 143.46-3.85 144.89-4.95 144.89-6.75L144.89-6.75Q144.89-8.3 143.69-9.3 142.49-10.3 139.59-11.1L139.59-11.1Q136.74-11.95 135.06-12.9 133.39-13.85 132.69-15.18 131.99-16.5 131.99-18.35L131.99-18.35Q131.99-21.6 134.26-23.65 136.54-25.7 140.19-25.7L140.19-25.7Q141.34-25.7 142.71-25.48 144.09-25.25 145.36-24.88 146.64-24.5 147.44-24L147.44-24 146.04-20.95Q145.04-21.5 143.34-21.88 141.64-22.25 140.19-22.25L140.19-22.25Q138.29-22.25 137.04-21.25 135.79-20.25 135.79-18.7L135.79-18.7Q135.79-17.3 136.86-16.45 137.94-15.6 140.69-14.8L140.69-14.8Q145.14-13.5 146.91-11.75 148.69-10 148.69-6.9L148.69-6.9Q148.69-3.45 146.24-1.38 143.79 0.7 139.69 0.7Z" fill="black"></path></g></svg></g></svg></g><g transform="matrix(1,0,0,1,0,114.08594115227976)"><svg viewBox="0 0 395.52 42.91804277067922" height="42.91804277067922" width="395.52"><g transform="matrix(1,0,0,1,0,0)"><svg width="395.52" viewBox="-4.85 -34.4 458.94 49.8" height="42.91804277067922" data-palette-color="url(#6fcb6d91-f1f1-4ed6-833b-e047583953ef)"><path d="M12.05 4.65L12.05 4.65Q11.4 4.65 10.78 4.3 10.15 3.95 10.1 3.5L10.1 3.5Q10.25 0.45 17.25-13.2L17.25-13.2Q24.2-26.5 24.2-29.75L24.2-29.75Q24.2-33.05 20.15-33.05L20.15-33.05Q14.2-33.05 5.7-27.55L5.7-27.55Q-3.1-21.9-3.1-17.4L-3.1-17.4Q-3.1-15.3-0.75-14L-0.75-14Q0.4-13.35 2.3-13.35L2.3-13.35Q3.85-13.35 6-13.8L6-13.8Q7.1-14.05 7.65-14.18 8.2-14.3 8.25-14.3L8.25-14.3Q8.4-14.3 8.4-14.25L8.4-14.25Q8.4-14.1 7.8-13.65L7.8-13.65Q6.25-12.4 2.45-12.4L2.45-12.4Q0.3-12.4-1.6-13L-1.6-13Q-4.85-14.15-4.85-17.2L-4.85-17.2Q-4.85-19.2-3.35-21.75L-3.35-21.75Q-1.15-25.5 6.55-29.85L6.55-29.85Q14.6-34.4 20.3-34.4L20.3-34.4Q26.55-34.4 26.55-28.25L26.55-28.25Q26.55-24.85 24-19.65L24-19.65Q23.5-18.7 22-16.03 20.5-13.35 18-9.05L18-9.05Q16-5.65 14.65-2.88 13.3-0.1 12.55 2L12.55 2 14 0.45Q14.65-0.25 17.55-3.5 20.45-6.75 25.6-12.6L25.6-12.6Q31.85-19.7 35.6-22.35L35.6-22.35Q36.45-22.95 38.35-22.95L38.35-22.95Q40.55-22.95 40-22.1L40-22.1Q38-18.9 36.4-14.15L36.4-14.15Q34.65-8.8 34.65-5.25L34.65-5.25Q34.65-0.95 37.2-0.2L37.2-0.2Q38.4 0.15 39.8 0.15L39.8 0.15Q46.25 0.15 52-7.1L52-7.1Q57.5-13.95 57.5-20.5L57.5-20.5Q57.5-25.4 53.85-26.95L53.85-26.95Q53.4-27.2 52.98-27.28 52.55-27.35 52.15-27.35L52.15-27.35Q51.7-27.35 51.5-27.3L51.5-27.3Q51.1-27.2 51.1-27.5L51.1-27.5Q51.1-28.05 51.95-28.73 52.8-29.4 53.95-29.4L53.95-29.4Q54.65-29.4 55.1-29.2L55.1-29.2Q59.85-27.6 59.85-21.95L59.85-21.95Q59.85-19.55 59.15-17 58.45-14.45 56.95-11.75L56.95-11.75Q54.05-6.35 49.55-2.75L49.55-2.75Q44.6 1.15 39.55 1.15L39.55 1.15Q38.75 1.15 37.98 1.05 37.2 0.95 36.4 0.75L36.4 0.75Q32.1-0.4 32.1-6.1L32.1-6.1Q32.1-11.5 35.9-19.6L35.9-19.6Q36.15-20.2 36.15-20.4L36.15-20.4Q36.15-20.8 35.9-20.8L35.9-20.8Q35.75-20.8 35.5-20.65L35.5-20.65Q32.05-18.7 24.95-10L24.95-10Q15.45 1.7 12.8 4.4L12.8 4.4Q12.55 4.65 12.05 4.65ZM91.39 0.55L91.39 0.55Q90.39 0.55 89.56-0.1 88.74-0.75 88.59-1.35L88.59-1.35Q88.44-2.05 90.44-6.35L90.44-6.35 89.29-4.7Q88.54-3.6 87.79-2.75 87.04-1.9 86.39-1.25L86.39-1.25Q84.49 0.55 83.19 0.25L83.19 0.25Q80.19-0.45 80.19-3.15L80.19-3.15Q80.19-5.3 82.24-8.65L82.24-8.65Q82.89-9.65 83.89-10.65 84.89-11.65 86.19-12.6L86.19-12.6Q89.54-15.05 92.64-15.05L92.64-15.05Q94.54-15.05 96.24-14.05L96.24-14.05Q96.79-13.65 96.79-13.2L96.79-13.2Q96.79-12.85 96.59-12.85L96.59-12.85Q96.54-12.85 96.49-12.9L96.49-12.9Q95.44-14.05 93.69-14.05L93.69-14.05Q91.64-14.05 89.24-12.5 86.84-10.95 84.94-8.35L84.94-8.35Q82.24-4.6 82.24-2.25L82.24-2.25Q82.24-0.9 83.19-0.55L83.19-0.55Q84.39-0.05 88.29-5L88.29-5Q89.89-6.95 90.96-8.5 92.04-10.05 92.69-11.15L92.69-11.15Q92.99-11.7 93.79-11.7L93.79-11.7Q95.29-11.7 95.29-10.8L95.29-10.8Q95.29-10.65 95.24-10.6L95.24-10.6Q90.89-3.7 90.89-1.25L90.89-1.25Q90.89-0.65 91.24-0.6L91.24-0.6Q92.29-0.3 94.74-2.15L94.74-2.15Q97.69-4.35 100.29-8L100.29-8Q100.84-8.75 101.29-8.75L101.29-8.75Q101.44-8.75 101.44-8.65L101.44-8.65Q101.44-8.4 100.99-7.7L100.99-7.7Q99.94-6.05 98.66-4.6 97.39-3.15 95.84-1.9L95.84-1.9Q93.64-0.05 92.24 0.4L92.24 0.4Q91.89 0.55 91.39 0.55ZM119.43 15.4L119.43 15.4Q117.53 15.4 117.53 13.5L117.53 13.5Q117.53 11.95 118.88 9.8L118.88 9.8Q119.73 8.45 121.05 6.93 122.38 5.4 124.23 3.7L124.23 3.7Q127.53 0.5 131.23-1.85L131.23-1.85Q132.08-3.95 132.7-5.85 133.33-7.75 133.78-9.4L133.78-9.4Q133.43-8.8 129.93-4.7L129.93-4.7Q125.68 0.3 124.08 0.3L124.08 0.3Q123.88 0.3 123.78 0.25L123.78 0.25 122.28-0.55Q121.58-0.95 121.43-1.33 121.28-1.7 121.28-2.1L121.28-2.1Q121.28-3.45 122.08-5.95 122.88-8.45 124.58-12.05L124.58-12.05Q125.33-13.65 126.28-13.65L126.28-13.65Q126.98-13.65 127.63-12.6L127.63-12.6 125.43-8.25Q123.08-3.65 123.08-1.85L123.08-1.85Q123.08-0.65 123.88-0.65L123.88-0.65Q125.48-0.65 129.88-6.1L129.88-6.1Q131.33-7.85 132.55-9.47 133.78-11.1 134.78-12.65L134.78-12.65Q135.13-13.15 135.78-13.15L135.78-13.15Q136.98-13.15 136.98-12.25L136.98-12.25Q136.98-12.05 136.83-11.8L136.83-11.8Q136.43-10.4 135.75-8.38 135.08-6.35 134.13-3.6L134.13-3.6Q135.73-4.55 136.68-4.55L136.68-4.55Q137.08-4.55 137.08-4.35L137.08-4.35Q137.08-3.85 135.83-3.4L135.83-3.4Q135.33-3.2 134.75-2.95 134.18-2.7 133.53-2.35L133.53-2.35Q130.03 6.35 125.08 12L125.08 12Q122.08 15.4 119.43 15.4ZM120.48 14.35L120.48 14.35Q121.43 14.35 122.78 12.8L122.78 12.8Q127.23 7.8 130.58-0.3L130.58-0.3Q123.93 4.65 120.68 10L120.68 10Q119.58 11.75 119.58 13.1L119.58 13.1Q119.58 14.35 120.48 14.35ZM199.71 0.85L199.71 0.85Q195.86 0 195.86-2.65L195.86-2.65Q195.86-3.4 196.11-4.42 196.36-5.45 196.91-6.7L196.91-6.7 201.16-16.25Q200.41-16.15 199.51-16.05 198.61-15.95 197.51-15.85L197.51-15.85Q197.31-15.85 197.31-16.2L197.31-16.2Q197.31-16.9 197.56-17L197.56-17 201.76-17.6 205.01-24.2Q205.46-25.1 207.81-25.1L207.81-25.1Q208.91-25.1 208.76-24.85L208.76-24.85Q207.66-23.1 206.53-21.33 205.41-19.55 204.31-17.8L204.31-17.8Q204.46-17.85 204.96-17.9 205.46-17.95 206.26-18L206.26-18Q206.86-18.05 207.41-18.07 207.96-18.1 208.46-18.1L208.46-18.1Q210.56-18.1 210.46-17.9L210.46-17.9Q210.11-17.55 203.66-16.55L203.66-16.55Q198.21-6.25 198.21-2L198.21-2Q198.21-0.45 199.11-0.15L199.11-0.15Q199.81 0.05 202.66-2L202.66-2Q204.31-3.2 205.66-4.63 207.01-6.05 208.11-7.65L208.11-7.65Q208.46-8.15 208.76-8.15L208.76-8.15Q208.96-8.15 208.96-7.95L208.96-7.95Q208.96-7.75 208.71-7.35L208.71-7.35Q206.81-4.3 203.66-1.6L203.66-1.6Q200.61 1.05 199.71 0.85ZM234.35 0.55L234.35 0.55Q230.7 0.55 230.7-3.95L230.7-3.95Q230.7-8.45 234.3-12.55L234.3-12.55Q234.35-12.6 234.25-12.93 234.15-13.25 234.15-13.4L234.15-13.4Q234.15-13.7 234.35-13.85L234.35-13.85Q236.1-15.25 238.45-15.25L238.45-15.25Q239.1-15.25 239.5-15L239.5-15Q240-14.8 240.45-14.6 240.9-14.4 241.3-14.15L241.3-14.15Q243.2-13 243.95-11.75L243.95-11.75Q245.2-11.8 246.05-11.85 246.9-11.9 247.35-11.95L247.35-11.95 247.55-11.95Q248-11.95 248-11.6L248-11.6Q248-11.5 247.8-11.45L247.8-11.45Q247.25-11.35 246.37-11.2 245.5-11.05 244.25-10.9L244.25-10.9Q244.4-10.55 244.4-10.1L244.4-10.1Q244.4-9.75 244.35-9.6L244.35-9.6Q243.6-5.55 240.4-2.5L240.4-2.5Q237.3 0.55 234.35 0.55ZM242.75-11.75L242.75-11.75Q241.95-13 239.6-13L239.6-13Q237.8-13 237.25-12.6L237.25-12.6Q237.1-12.55 236.95-12.4 236.8-12.25 236.6-12.05L236.6-12.05Q239.4-11.7 242.75-11.75ZM234.5-0.25L234.5-0.25Q236.7-0.25 239.55-3.4L239.55-3.4Q242.45-6.55 243-9.5L243-9.5Q243.05-9.75 243.07-9.93 243.1-10.1 243.1-10.25L243.1-10.25Q243.1-10.55 243-10.85L243-10.85Q242.05-10.8 241.05-10.8 240.05-10.8 239.05-10.8L239.05-10.8Q238.05-10.8 237.22-10.8 236.4-10.8 235.75-10.85L235.75-10.85Q233.75-8.15 233.25-6.5L233.25-6.5Q232.65-4.65 232.65-2.95L232.65-2.95Q232.65-0.25 234.5-0.25ZM307.12 4.55L307.12 4.55Q305.17 4.3 303.97 2.75 302.77 1.2 302.77-1.1L302.77-1.1Q302.77-4.7 305.57-8.4L305.57-8.4Q306.02-9 306.37-9L306.37-9Q306.57-9 306.57-8.75L306.57-8.75Q306.57-8.4 306.17-7.85L306.17-7.85Q304.07-4.95 304.07-1.4L304.07-1.4Q304.07 0.6 304.87 1.85 305.67 3.1 307.17 3.1L307.17 3.1Q312.77 3.05 320.42-12.45L320.42-12.45Q320.32-12.5 320.15-12.53 319.97-12.55 319.72-12.55L319.72-12.55Q318.72-12.65 318.72-13.25L318.72-13.25Q318.72-13.85 320.92-13.7L320.92-13.7Q321.92-15.75 323-18.15 324.07-20.55 325.17-23.25L325.17-23.25Q326.32-25.95 326.9-27.3 327.47-28.65 327.47-28.65L327.47-28.65Q327.67-29.15 328.42-29.15L328.42-29.15Q329.02-29.15 329.6-28.75 330.17-28.35 330.17-27.85L330.17-27.85Q330.17-27.8 330.07-27.5L330.07-27.5Q329.27-25.65 327.52-22.15 325.77-18.65 323.12-13.5L323.12-13.5Q329.42-13.2 334.82-15.9L334.82-15.9Q339.72-18.25 341.22-21.45L341.22-21.45Q342.12-23.35 342.12-24.95L342.12-24.95Q342.12-28.2 338.72-30.25L338.72-30.25Q336.12-31.9 332.22-32.35L332.22-32.35Q329.62-32.65 327.02-32.65L327.02-32.65Q317.57-32.65 310.47-28.85L310.47-28.85Q304.02-25.5 304.02-22L304.02-22Q304.02-21.6 304.22-21.03 304.42-20.45 304.42-20.2L304.42-20.2Q304.42-20 304.27-20L304.27-20Q304.07-20 303.52-20.4L303.52-20.4Q302.22-21.4 302.22-22.85L302.22-22.85Q302.22-26.6 308.27-29.8L308.27-29.8Q315.42-33.55 327.02-33.55L327.02-33.55Q328.32-33.55 329.62-33.5 330.92-33.45 332.27-33.35L332.27-33.35Q336.32-33.05 340.17-30.95L340.17-30.95Q345.02-28.25 345.02-24.2L345.02-24.2Q345.02-22.65 344.37-21.15L344.37-21.15Q343.07-18 337.22-15.5L337.22-15.5Q334.02-14.1 330.37-13.38 326.72-12.65 322.57-12.55L322.57-12.55Q312.77 5.2 307.12 4.55ZM370.46 0.55L370.46 0.55Q369.46 0.55 368.64-0.1 367.81-0.75 367.66-1.35L367.66-1.35Q367.51-2.05 369.51-6.35L369.51-6.35 368.36-4.7Q367.61-3.6 366.86-2.75 366.11-1.9 365.46-1.25L365.46-1.25Q363.56 0.55 362.26 0.25L362.26 0.25Q359.26-0.45 359.26-3.15L359.26-3.15Q359.26-5.3 361.31-8.65L361.31-8.65Q361.96-9.65 362.96-10.65 363.96-11.65 365.26-12.6L365.26-12.6Q368.61-15.05 371.71-15.05L371.71-15.05Q373.61-15.05 375.31-14.05L375.31-14.05Q375.86-13.65 375.86-13.2L375.86-13.2Q375.86-12.85 375.66-12.85L375.66-12.85Q375.61-12.85 375.56-12.9L375.56-12.9Q374.51-14.05 372.76-14.05L372.76-14.05Q370.71-14.05 368.31-12.5 365.91-10.95 364.01-8.35L364.01-8.35Q361.31-4.6 361.31-2.25L361.31-2.25Q361.31-0.9 362.26-0.55L362.26-0.55Q363.46-0.05 367.36-5L367.36-5Q368.96-6.95 370.04-8.5 371.11-10.05 371.76-11.15L371.76-11.15Q372.06-11.7 372.86-11.7L372.86-11.7Q374.36-11.7 374.36-10.8L374.36-10.8Q374.36-10.65 374.31-10.6L374.31-10.6Q369.96-3.7 369.96-1.25L369.96-1.25Q369.96-0.65 370.31-0.6L370.31-0.6Q371.36-0.3 373.81-2.15L373.81-2.15Q376.76-4.35 379.36-8L379.36-8Q379.91-8.75 380.36-8.75L380.36-8.75Q380.51-8.75 380.51-8.65L380.51-8.65Q380.51-8.4 380.06-7.7L380.06-7.7Q379.01-6.05 377.74-4.6 376.46-3.15 374.91-1.9L374.91-1.9Q372.71-0.05 371.31 0.4L371.31 0.4Q370.96 0.55 370.46 0.55ZM401.1 2.05L401.1 2.05Q400.9 2.05 400.9 1.9L400.9 1.9Q400.9 1.25 404.3-0.5L404.3-0.5Q405.15-0.9 405.85-1.33 406.55-1.75 407.05-2.1L407.05-2.1Q410.1-4.35 410.1-6L410.1-6Q410.1-7.25 407.65-7.25L407.65-7.25Q401.95-7.35 401.95-9.75L401.95-9.75Q401.95-10.8 402.85-11.75L402.85-11.75Q403.9-12.95 406.35-14.05L406.35-14.05Q409-15.25 411.2-15.25L411.2-15.25Q413.15-15.25 414.15-14.3L414.15-14.3Q414.6-13.85 414.6-13.2L414.6-13.2Q414.6-12.5 414.15-11.95 413.7-11.4 413.15-11.4L413.15-11.4Q412.15-11.4 412.05-12.75L412.05-12.75Q412.05-13.7 411.75-13.85 411.45-14 410.15-14L410.15-14Q408.5-14 406.45-12.9L406.45-12.9Q404-11.65 404.15-9.9L404.15-9.9Q404.25-8.9 407.95-8.9L407.95-8.9Q413-8.9 413-6.45L413-6.45Q413-3.8 408.65-1.15L408.65-1.15Q405.9 0.55 401.95 1.85L401.95 1.85Q401.4 2.05 401.1 2.05ZM440.59 2.05L440.59 2.05Q440.39 2.05 440.39 1.9L440.39 1.9Q440.39 1.25 443.79-0.5L443.79-0.5Q444.64-0.9 445.34-1.33 446.04-1.75 446.54-2.1L446.54-2.1Q449.59-4.35 449.59-6L449.59-6Q449.59-7.25 447.14-7.25L447.14-7.25Q441.44-7.35 441.44-9.75L441.44-9.75Q441.44-10.8 442.34-11.75L442.34-11.75Q443.39-12.95 445.84-14.05L445.84-14.05Q448.49-15.25 450.69-15.25L450.69-15.25Q452.64-15.25 453.64-14.3L453.64-14.3Q454.09-13.85 454.09-13.2L454.09-13.2Q454.09-12.5 453.64-11.95 453.19-11.4 452.64-11.4L452.64-11.4Q451.64-11.4 451.54-12.75L451.54-12.75Q451.54-13.7 451.24-13.85 450.94-14 449.64-14L449.64-14Q447.99-14 445.94-12.9L445.94-12.9Q443.49-11.65 443.64-9.9L443.64-9.9Q443.74-8.9 447.44-8.9L447.44-8.9Q452.49-8.9 452.49-6.45L452.49-6.45Q452.49-3.8 448.14-1.15L448.14-1.15Q445.39 0.55 441.44 1.85L441.44 1.85Q440.89 2.05 440.59 2.05Z" opacity="1" transform="matrix(1,0,0,1,0,0)" fill="white" class="slogan-text-1" id="SvgjsPath1385"></path></svg></g></svg></g></svg></g></svg></g><g transform="matrix(1,0,0,1,76.53311999999997,0)"><svg viewBox="0 0 244.43135999999998 164.29858476664583" height="164.29858476664583" width="244.43135999999998"><g><svg xmlns="http://www.w3.org/2000/svg" xmlns:xlink="http://www.w3.org/1999/xlink" version="1.1" x="0" y="0" viewBox="-345.76500000000004 275.279 99.42178716439025 66.82799999999997" enable-background="new -346 256 100 100" xml:space="preserve" height="164.29858476664583" width="244.43135999999998" class="icon-icon-0" data-fill-palette-color="accent" id="SvgjsSvg1384"><g fill="black"><path d="M-251.339 331.136c-1.075-0.089-10.585-1.174-13.146-12.066-1.193-5.07-0.778-11.961-0.771-12.072 0.029-0.447-0.054-5.186-0.681-7.358-2.921-10.141-18.188-15.871-36.045-12.331-3.322 0.658-6.707 1.383-9.986 2.229 0.362 3.394 0.476 9.926-3.161 14.244-3.077 3.656-9.528 4.764-10.254 4.879-0.113 0.016-0.226 0.025-0.337 0.025-1.037 0-1.95-0.755-2.117-1.811-0.186-1.17 0.614-2.271 1.784-2.454 1.539-0.249 5.903-1.341 7.642-3.406 2.163-2.569 2.434-6.594 2.297-9.446-0.092-1.936-0.047-16.29-0.047-16.29l-8.137 6.194c-1.875-0.712-3.939-1.112-6.114-1.112-2.109 0-4.118 0.373-5.947 1.046l-7.168-6.016v11.439c-1.411 2.03-2.238 4.402-2.238 6.952 0 5.992 4.494 11.062 10.695 12.788-0.211 2.04 0.017 4.297 0.793 6.817 1.057 3.43 3.927 6.252 7.952 8.349v15.042c0 2.928 2.374 5.302 5.303 5.302 2.927 0 5.302-2.374 5.302-5.302v-11.63c5.116 0.897 10.841 1.051 16.618 0.36l-8.898 7.167c-2.28 1.838-2.64 5.175-0.803 7.456 1.048 1.299 2.583 1.976 4.132 1.976 1.167 0 2.343-0.384 3.323-1.173l15.905-12.812c0.08-0.063 0.138-0.138 0.212-0.207v8.78c0 2.929 2.375 5.302 5.301 5.302 2.928 0 5.303-2.373 5.303-5.302V322.9c4.018 14.116 16.391 18.641 22.565 19.025 0.116 0.008 0.229 0.012 0.344 0.012 2.811 0 5.155-2.177 5.361-5.021C-246.146 333.958-248.382 331.379-251.339 331.136z" fill="black"></path></g></svg></g></svg></g><g></g></svg></g><defs><mask></mask></defs></svg><rect width="263.2913057380319" height="247.2" fill="black" stroke="none" visibility="hidden"></rect></g></mask><linearGradient x1="0" x2="1" y1="0.548" y2="0.55" id="6fcb6d91-f1f1-4ed6-833b-e047583953ef"><stop stop-color="#ff6cab" offset="0"></stop><stop stop-color="#7366ff" offset="1"></stop></linearGradient><rect width="263.2913057380319" height="247.2" fill="url(#6fcb6d91-f1f1-4ed6-833b-e047583953ef)" mask="url(#590ad783-fad3-49b6-914a-80d161554582)" data-fill-palette-color="secondary"></rect></svg><rect width="263.2913057380319" height="247.2" fill="none" stroke="none" visibility="hidden"></rect></g></svg></g></svg>